<?xml version="1.0" encoding="utf-8"?>
<!-- Generator: Adobe Illustrator 23.0.1, SVG Export Plug-In . SVG Version: 6.00 Build 0)  -->
<svg version="1.1" id="Layer_1" xmlns="http://www.w3.org/2000/svg" xmlns:xlink="http://www.w3.org/1999/xlink" x="0px" y="0px"
	 viewBox="0 0 283.46 283.46" style="enable-background:new 0 0 283.46 283.46;" xml:space="preserve">
<style type="text/css">
	.st0{fill:#FFFFFF;}
</style>
<g>
	<g>
		<path class="st0" d="M209.07,29.99l-93.01,2.37c-0.17,4.22-0.3,8.43-0.45,12.65l91.08-2.32L209.07,29.99z"/>
		<path class="st0" d="M83.2,33.2l-21.55,0.55l0.99,12.61l21.04-0.54C83.53,41.61,83.34,37.43,83.2,33.2z"/>
		<path class="st0" d="M242.09,33.79c-5.44-2.81-11.64-4.34-18.19-4.18l-6.96,0.18L242.09,33.79z"/>
	</g>
	<path class="st0" d="M266.01,139.16c-132.94-31.79-222.87-6.84-254.54,4.92c-7.17,2.66-10.68,9.83-7.97,16.22l35.42,83.46
		c2.5,5.89,9.53,9.26,16.52,7.89c86.89-16.96,149.6-8,175.66-2.41c7.55,1.62,15.23-2.35,17.36-8.95l27.57-85.46
		C278.23,148.04,273.72,141,266.01,139.16z M98.21,237.12c-17.74,1.9-33.6,4.67-47.41,7.75c-4.09,0.91-8.22-1.33-9.76-5.23
		L9.73,160.31c-1.83-4.64,0.68-9.83,5.44-11.33c16.91-5.35,40.23-11.22,69.16-14.88c4.68-0.59,8.99,2.64,9.64,7.32l11.89,86.01
		C106.53,232.24,103.05,236.6,98.21,237.12z M166.03,234.76c-16.96-0.59-32.89-0.29-47.72,0.65c-4.47,0.28-8.43-2.86-9.08-7.3
		l-12.7-86.3c-0.73-4.93,2.89-9.39,7.85-9.8c21.21-1.73,44.9-2.17,70.83-0.49c4.8,0.31,8.4,4.59,7.94,9.38l-8.22,86.12
		C174.5,231.56,170.58,234.92,166.03,234.76z M270.1,155.9l-26.94,79.97c-1.34,3.99-5.41,6.37-9.56,5.68
		c-16.52-2.72-32.36-4.56-47.47-5.69c-4.78-0.36-8.36-4.5-7.95-9.28l7.42-85.61c0.41-4.75,4.61-8.29,9.34-7.8
		c21.65,2.23,44.7,5.96,69.02,11.62C268.86,145.95,271.71,151.13,270.1,155.9z"/>
	<g>
		<g>
			<g>
				<path class="st0" d="M81.48,86.79c-0.81-3.71-2.14-7.07-3.93-9.96c-1.84-2.97-4.14-5.42-6.84-7.3c-2.68-1.86-5.76-3.18-9.16-3.9
					c-3.32-0.71-6.91-0.78-10.66-0.21c-0.84,0.09-1.82,0.26-2.98,0.54c-0.97,0.23-2.06,0.47-3.21,0.7c-1.09,0.22-2.22,0.4-3.36,0.53
					c-0.99,0.11-1.92,0.14-2.75,0.07c-0.16-0.01-0.31-0.03-0.43-0.05c0.41-0.29,0.9-0.57,1.46-0.83c0.78-0.36,1.58-0.67,2.36-0.94
					c0.8-0.27,1.58-0.5,2.32-0.68c0.81-0.2,1.47-0.35,1.98-0.47c2.67-0.59,5.52-0.9,8.47-0.93c3.06-0.03,6.06,0.11,8.91,0.43
					c1.15,0.13,2.3-0.28,3.12-1.1c0.82-0.83,1.21-1.98,1.07-3.13l-0.92-7.51l-2.2-27.9c-0.16-2.06-1.94-3.61-4-3.49l-26.52,1.52
					c-0.01,0-0.02,0-0.04,0c-1.22,0.08-2.33,0.75-2.97,1.79c-0.65,1.05-0.74,2.36-0.25,3.5l1.87,4.32
					c-4.36,1.11-8.49,2.84-12.32,5.15c-4.32,2.61-8.02,5.85-10.99,9.62c-3.01,3.83-5.17,8.2-6.41,12.99
					C1.8,64.42,1.77,69.65,2.96,75.1c0.87,4,2.37,7.63,4.44,10.79c2.09,3.2,4.66,5.84,7.64,7.87c3,2.05,6.39,3.44,10.08,4.13
					c3.68,0.7,7.6,0.6,11.64-0.29l1.98-0.43c0.71-0.16,1.51-0.29,2.37-0.4c0.85-0.11,1.73-0.18,2.64-0.21
					c0.73-0.02,1.39,0.03,1.96,0.15c0.13,0.03,0.24,0.06,0.34,0.09c-0.21,0.2-0.46,0.38-0.76,0.55c-0.68,0.38-1.43,0.69-2.23,0.91
					c-1.03,0.29-1.92,0.51-2.63,0.67c-3.81,0.84-7.86,1.19-12.05,1.04c-4.13-0.14-8.06-0.83-11.68-2.05
					c-1.23-0.41-2.58-0.17-3.59,0.64c-1.01,0.81-1.53,2.08-1.39,3.37l2.87,26.18c0.18,1.61,1.36,2.94,2.94,3.29
					c2,0.45,4.31,0.9,6.88,1.34c2.58,0.44,5.28,0.8,8.01,1.07c2.77,0.27,5.52,0.42,8.16,0.43c1.02,0,2.01-0.03,2.96-0.09
					c1.67-0.11,3.25-0.33,4.71-0.65c5.6-1.23,10.76-3.16,15.34-5.74c4.68-2.64,8.62-5.98,11.71-9.92c3.14-4,5.32-8.66,6.47-13.87
					C82.93,98.75,82.83,92.98,81.48,86.79z M78.08,103.12c-1.04,4.67-2.96,8.79-5.75,12.35c-2.8,3.56-6.33,6.55-10.59,8.96
					c-4.27,2.41-9.03,4.19-14.28,5.34c-2.03,0.44-4.31,0.66-6.85,0.66c-2.54-0.01-5.14-0.14-7.8-0.41
					c-2.66-0.26-5.24-0.61-7.74-1.04s-4.73-0.86-6.69-1.3l-2.87-26.18c3.98,1.34,8.23,2.09,12.76,2.25
					c4.52,0.16,8.85-0.21,12.99-1.12c0.79-0.17,1.73-0.41,2.84-0.72c1.1-0.31,2.13-0.73,3.08-1.26c0.95-0.53,1.7-1.19,2.27-1.96
					c0.57-0.77,0.73-1.74,0.47-2.9c-0.17-0.79-0.57-1.4-1.19-1.85c-0.62-0.45-1.36-0.76-2.22-0.94c-0.86-0.18-1.81-0.25-2.85-0.22
					c-1.03,0.03-2.04,0.11-3.01,0.24c-0.97,0.13-1.87,0.28-2.7,0.46c-0.83,0.18-1.49,0.33-1.99,0.43
					c-3.56,0.78-6.93,0.87-10.12,0.27c-3.19-0.6-6.07-1.78-8.65-3.54c-2.58-1.76-4.78-4.03-6.6-6.82c-1.83-2.79-3.13-5.96-3.91-9.52
					c-1.07-4.88-1.05-9.47,0.07-13.78c1.12-4.3,3.03-8.17,5.72-11.6c2.7-3.43,6.02-6.34,9.96-8.72c3.94-2.38,8.19-4.07,12.75-5.07
					c0.96-0.21,1.94-0.4,2.93-0.59l-3.71-8.56l26.52-1.52l2.2,27.99l0.93,7.59c-3.02-0.34-6.15-0.49-9.37-0.45
					c-3.22,0.03-6.31,0.37-9.24,1.02c-0.54,0.12-1.23,0.28-2.07,0.49c-0.85,0.21-1.72,0.46-2.63,0.77
					c-0.91,0.31-1.82,0.67-2.72,1.08c-0.91,0.42-1.69,0.88-2.36,1.4c-0.67,0.51-1.17,1.11-1.49,1.79c-0.33,0.68-0.39,1.41-0.17,2.18
					c0.24,0.9,0.74,1.56,1.51,1.98c0.76,0.42,1.69,0.67,2.77,0.76c1.08,0.09,2.25,0.06,3.49-0.08c1.25-0.14,2.47-0.34,3.68-0.58
					c1.21-0.24,2.32-0.49,3.35-0.73c1.03-0.25,1.89-0.4,2.57-0.46c3.36-0.52,6.49-0.47,9.4,0.15c2.91,0.62,5.5,1.72,7.78,3.31
					c2.28,1.58,4.2,3.64,5.78,6.18c1.58,2.54,2.73,5.46,3.45,8.78C79.01,93.28,79.11,98.45,78.08,103.12z"/>
			</g>
			<path class="st0" d="M184.89,79.63c-0.04-1.49-0.3-2.92-0.77-4.31c-0.47-1.39-1.14-2.61-2-3.68c-0.86-1.06-1.91-1.92-3.16-2.56
				c-1.25-0.64-2.66-0.93-4.25-0.89c-1.62,0.05-3.07,0.38-4.33,1.01c-1.26,0.62-2.34,1.46-3.22,2.5c-0.89,1.05-1.55,2.26-2,3.64
				c-0.45,1.38-0.65,2.83-0.6,4.35c0.04,1.45,0.29,2.9,0.75,4.34c0.46,1.44,1.12,2.74,1.98,3.89c0.86,1.15,1.92,2.07,3.17,2.76
				c1.25,0.69,2.68,1.01,4.31,0.97s3.07-0.41,4.35-1.08c1.28-0.68,2.35-1.57,3.22-2.69c0.87-1.11,1.52-2.39,1.97-3.82
				C184.74,82.62,184.94,81.15,184.89,79.63z M180.81,82.97c-0.31,1.02-0.76,1.89-1.36,2.66c-0.55,0.71-1.22,1.27-2.05,1.7
				c-0.78,0.42-1.7,0.63-2.75,0.66c-0.97,0.03-1.77-0.14-2.44-0.51c-0.8-0.44-1.46-1.02-2.02-1.76c-0.61-0.82-1.09-1.76-1.42-2.8
				c-0.35-1.11-0.55-2.24-0.58-3.34c-0.03-1.11,0.11-2.14,0.43-3.13c0.3-0.93,0.73-1.71,1.31-2.4c0.57-0.67,1.24-1.19,2.06-1.59
				c0.69-0.34,1.52-0.55,2.45-0.61c0.12-0.01,0.24-0.01,0.36-0.02c0.98-0.03,1.79,0.13,2.49,0.49c0.8,0.41,1.45,0.93,1.99,1.6
				c0.59,0.74,1.05,1.57,1.38,2.56c0.35,1.04,0.55,2.13,0.58,3.24C181.28,80.86,181.14,81.92,180.81,82.97z"/>
			<path class="st0" d="M143.45,81.66c-0.77-0.74-1.81-1.13-2.88-1.06c-2.35,0.15-4.72,0.33-7.04,0.52
				c-2.25,0.19-4.57,0.36-6.9,0.51l-5.9,0.38c-0.65,0.04-1.29,0.08-1.95,0.11c-0.14-8.04-0.08-16.1,0.17-24.01
				c0.29-9.33,0.62-18.72,0.99-27.89c0.04-1.07-0.37-2.12-1.14-2.87c-0.77-0.75-1.82-1.14-2.9-1.07l-32.98,2.14
				c-2.06,0.11-3.61,1.86-3.55,3.91c0.49,14.65,1.06,29.5,1.69,44.13c0.63,14.57,1.3,29.4,2,44.09c0.05,1.07,0.55,2.06,1.37,2.75
				c0.79,0.65,1.8,0.95,2.81,0.85c0.05-0.01,0.1-0.01,0.15-0.02l53.13-7.65c1.82-0.26,3.2-1.8,3.25-3.64l0.83-28.33
				C144.64,83.44,144.22,82.41,143.45,81.66z M139.98,112.73l-53.13,7.65c-0.7-14.77-1.37-29.46-2-44.07
				c-0.63-14.61-1.19-29.3-1.69-44.09l32.98-2.14c-0.37,9.32-0.7,18.63-0.99,27.93c-0.29,9.3-0.32,18.65-0.09,28.06
				c1.99-0.04,3.96-0.13,5.91-0.26c1.94-0.13,3.91-0.25,5.9-0.38c2.37-0.15,4.69-0.33,6.97-0.52c2.28-0.19,4.6-0.36,6.97-0.52
				L139.98,112.73z"/>
			<path class="st0" d="M280.85,37.28c-0.59-0.84-1.49-1.4-2.5-1.56l-68.41-10.88c-2.03-0.32-3.95,1.03-4.33,3.05l-4.72,25.2
				l3.01,4.56l5.44-29.07l68.41,10.88l-4.91,26.5l-18.82-2.26l-14.34,58.72l-26.7-2.88l9.7-59.46l-18.47-1.96l2.71,4.1l11.37,1.21
				l-9.05,55.5c-0.17,1.03,0.1,2.08,0.73,2.91c0.63,0.83,1.58,1.36,2.61,1.47l26.7,2.88c0.19,0.02,0.39,0.03,0.58,0.02
				c1.66-0.08,3.1-1.23,3.51-2.89l13.54-55.45l15.48,1.86c1.98,0.24,3.82-1.11,4.18-3.08l4.91-26.5
				C281.67,39.15,281.44,38.11,280.85,37.28z"/>
			<path class="st0" d="M208.41,62.55c-1.92-4.5-4.59-8.37-7.96-11.51c-3.36-3.14-7.42-5.54-12.06-7.14
				c-4.57-1.57-9.64-2.29-15.06-2.14c-3.46,0.1-6.78,0.68-9.89,1.74c-3.08,1.05-5.97,2.49-8.59,4.3c-2.61,1.79-4.98,3.94-7.05,6.37
				c-2.06,2.41-3.82,5.08-5.24,7.93c-1.42,2.85-2.49,5.91-3.2,9.09c-0.7,3.19-1.01,6.47-0.92,9.76c0.01,0.22,0.05,0.44,0.06,0.66
				c1.19-0.1,2.45,0.04,3.7,0.55c-0.03-0.44-0.11-0.87-0.12-1.31c-0.09-3.01,0.19-5.96,0.84-8.87c0.64-2.9,1.61-5.66,2.9-8.25
				c1.29-2.6,2.87-4.99,4.75-7.19c1.87-2.2,3.99-4.11,6.35-5.73c2.36-1.62,4.92-2.91,7.7-3.85c2.77-0.94,5.72-1.46,8.83-1.55
				c5.01-0.14,9.6,0.5,13.77,1.94c4.17,1.44,7.76,3.56,10.76,6.36c3,2.8,5.36,6.23,7.09,10.28c1.72,4.05,2.66,8.59,2.8,13.64
				c0.09,3.14-0.19,6.19-0.83,9.13c-0.64,2.94-1.61,5.71-2.9,8.3c-1.29,2.6-2.88,4.98-4.77,7.16c-1.89,2.18-4.03,4.07-6.43,5.66
				c-2.39,1.59-5.01,2.85-7.85,3.78c-2.84,0.93-5.87,1.44-9.08,1.53c-3.11,0.09-6.08-0.22-8.92-0.94c-2.84-0.71-5.51-1.75-8-3.12
				c-2.5-1.36-4.76-3.03-6.81-4.99c-2.05-1.96-3.8-4.16-5.27-6.59c-1.47-2.43-2.63-5.05-3.49-7.86c-0.27-0.89-0.44-1.82-0.63-2.74
				l-0.68,9.24c0.53,1.1,1.06,2.2,1.69,3.24c1.63,2.69,3.6,5.16,5.87,7.33c2.27,2.18,4.82,4.05,7.58,5.56
				c2.75,1.51,5.73,2.67,8.86,3.45c3.15,0.79,6.48,1.14,9.92,1.05c0.51-0.02,1.02-0.04,1.53-0.07c2.99-0.2,5.88-0.75,8.58-1.64
				c3.14-1.03,6.08-2.44,8.74-4.21c2.65-1.76,5.06-3.88,7.16-6.3c2.09-2.4,3.86-5.07,5.28-7.93c1.42-2.85,2.5-5.93,3.2-9.15
				c0.7-3.21,1.01-6.58,0.91-10.01C211.35,72.04,210.31,67.01,208.41,62.55z"/>
		</g>
		<g>
			<g>
				<g>
					<path class="st0" d="M71.77,169.95c-3.3-5.88-7.3-9.89-11.98-12.02c-4.79-2.15-9.27-2.06-13.44,0.28
						c-2.08,1.17-3.76,2.76-5.04,4.78c-1.28,2.02-2.07,4.36-2.38,7.01c-0.34,2.67-0.15,5.64,0.58,8.89
						c0.73,3.25,1.85,6.23,3.37,8.94c1.55,2.77,3.49,5.21,5.82,7.31c2.33,2.11,4.7,3.58,7.11,4.42c4.14,1.44,8.28,1,12.41-1.31
						c3.56-2,5.9-4.92,7.02-8.78c0.79-2.84,0.89-5.95,0.29-9.32C74.95,176.78,73.69,173.38,71.77,169.95z M71.05,189.04
						c-0.78,2.7-2.26,4.58-4.65,5.92c-2.86,1.6-5.55,1.88-8.47,0.86c-1.94-0.67-3.92-1.92-5.89-3.71c-2.06-1.87-3.81-4.06-5.19-6.52
						c-1.36-2.43-2.39-5.15-3.05-8.08c-0.64-2.85-0.82-5.45-0.53-7.75c0.23-2.03,0.82-3.8,1.74-5.26c0.83-1.31,1.87-2.31,3.19-3.05
						c2.75-1.55,5.67-1.53,9.18,0.04c3.99,1.82,7.5,5.4,10.45,10.64c1.74,3.11,2.9,6.2,3.43,9.2
						C71.74,184.2,71.68,186.79,71.05,189.04z"/>
					<path class="st0" d="M88.26,168.08c-4.68-8.33-10.85-13.97-18.35-16.75c-8.68-3.27-17.61-2.39-26.54,2.62
						c-7.5,4.21-12.68,10.1-15.38,17.49c-1.48,3.92-2.08,7.96-1.79,11.99c0.29,3.99,1.43,7.79,3.4,11.3
						c2.7,4.82,6.63,8.39,11.69,10.64c5.1,2.26,10.84,2.93,17.07,1.98c4.15-0.63,8-1.93,11.43-3.86c3.11-1.74,5.84-3.89,8.13-6.38
						c0.12-0.13,0.24-0.26,0.36-0.4c1.04,4.79,1.26,9.49,0.65,14.01c-0.78,6.03-2.87,9.93-6.4,11.91c-1.21,0.68-1.82,0.72-2.02,0.71
						c-0.21-0.01-0.98-0.12-2.33-1.13c-1.73-1.27-2.97-2.03-4.03-2.46c-1.37-0.56-2.9-0.77-4.58-0.6l-0.16,0.02
						c-1.43,0.2-2.83,0.68-4.17,1.43c-2.26,1.27-3.84,3.11-4.57,5.31c-0.69,2.09-0.51,4.1,0.55,5.97c1.23,2.18,3.98,4.72,10.13,4.41
						c4.11-0.21,8.55-1.64,13.2-4.25c4.26-2.39,7.88-5.4,10.77-8.94c2.82-3.46,5.1-7.64,6.77-12.41c2.51-7.03,3.44-14.32,2.76-21.68
						C94.17,181.71,91.96,174.67,88.26,168.08z M87.95,210.02c-1.52,4.33-3.52,8.01-6,11.06c-2.48,3.05-5.57,5.61-9.25,7.67
						c-3.95,2.22-7.59,3.41-10.91,3.58c-3.33,0.17-5.54-0.72-6.63-2.67c-0.58-1.04-0.69-2.1-0.33-3.19c0.36-1.09,1.11-1.96,2.25-2.6
						c0.76-0.43,1.53-0.69,2.32-0.8c0.9-0.09,1.72,0.02,2.46,0.32c0.74,0.31,1.84,0.99,3.28,2.04c1.55,1.16,3.03,1.78,4.44,1.85
						c1.41,0.08,3.01-0.39,4.8-1.39c4.97-2.79,7.93-7.9,8.89-15.35c1.02-7.61-0.07-15.45-3.27-23.55c-1.57,3.16-3.32,5.78-5.24,7.87
						c-1.92,2.09-4.19,3.87-6.81,5.34c-2.88,1.62-6.09,2.7-9.63,3.23c-5.37,0.82-10.26,0.26-14.64-1.69
						c-4.38-1.95-7.76-5.03-10.13-9.24c-1.75-3.12-2.75-6.43-3-9.95c-0.25-3.52,0.26-6.98,1.55-10.39
						c2.33-6.35,6.7-11.33,13.12-14.93c7.6-4.26,15.1-5,22.51-2.2c6.75,2.5,12.28,7.59,16.59,15.27c3.5,6.23,5.56,12.78,6.19,19.64
						C91.14,196.81,90.29,203.5,87.95,210.02z"/>
				</g>
				<path class="st0" d="M79.4,193.11c-1.13,2.92-3.23,2.97-4.74,4.84c-1.51,1.87-3.19,0.22-5.35,1.44
					c-2.38,1.34-6.24,2.85-9.26,3.11c-4.59,0.39-8.85-0.5-12.78-2.7c-3.93-2.19-7.08-5.4-9.43-9.62c-1.74-3.12-2.84-6.38-3.32-9.78
					c-0.47-3.4-0.28-6.69,0.58-9.87c1.55-5.93,4.97-10.39,10.26-13.38c6.26-3.53,12.69-3.69,19.31-0.46
					c6.02,2.9,11.17,8.2,15.45,15.89c3.48,6.24,5.74,12.68,6.78,19.32c1.05,6.64,0.8,13.01-0.75,19.1c-1,4.04-3.18,8.37-5.11,11.12
					c-1.93,2.74-1.85,2.95-4.89,4.66c-3.25,1.84-8.15,3.81-11.01,3.73c-2.86-0.08-4.84-1.1-5.93-3.06
					c-0.58-1.04-0.75-2.07-0.52-3.09c0.23-1.02,0.82-1.8,1.75-2.33c0.62-0.35,1.27-0.55,1.95-0.6c0.77-0.02,1.49,0.14,2.15,0.49
					c0.67,0.35,1.66,1.08,2.98,2.2c1.42,1.23,2.75,1.93,3.98,2.11c1.23,0.18,2.17-2.7,3.64-3.53c4.09-2.31,6.69-4.46,6.98-11.54
					C82.46,203.93,82.75,201.12,79.4,193.11z M69.25,171.32c-3.28-5.89-7.03-10.04-11.23-12.43c-4.3-2.42-7.71-1.46-11.14,0.48
					c-1.72,0.97-3.51,1.17-4.47,3.02c-0.96,1.85-1.48,4.03-1.55,6.56c-0.1,2.54,0.28,5.4,1.15,8.58c0.87,3.18,2.06,6.12,3.57,8.83
					c1.55,2.77,3.4,5.26,5.57,7.45c2.17,2.2,4.32,3.79,6.47,4.77c3.69,1.69,7.52,0.22,10.92-1.7c2.93-1.66,4.46-2.94,5.15-6.57
					c0.48-2.67,0.34-5.65-0.42-8.93C72.5,178.11,71.16,174.75,69.25,171.32z"/>
			</g>
			<g>
				<g>
					<path class="st0" d="M253.8,168.58c-3.41-8.7-10.06-14.81-19.77-18.14c-8.15-2.8-15.98-2.73-23.27,0.21
						c-3.89,1.53-7.28,3.78-10.07,6.71c-2.75,2.89-4.8,6.3-6.07,10.13c-1.74,5.26-1.75,10.61-0.01,15.9
						c1.75,5.34,5.12,10.1,10.01,14.12c3.25,2.69,6.8,4.7,10.53,5.98c3.38,1.16,6.8,1.77,10.18,1.81c0.18,0,0.36,0,0.54,0
						c-2.84,3.99-6.17,7.31-9.92,9.9c-4.98,3.47-9.27,4.51-13.11,3.2c-1.31-0.45-1.76-0.87-1.89-1.04s-0.57-0.82-0.73-2.51
						c-0.23-2.15-0.5-3.59-0.89-4.67c-0.51-1.41-1.38-2.69-2.64-3.84l-0.12-0.11c-1.11-0.94-2.41-1.66-3.86-2.16
						c-2.46-0.84-4.88-0.8-7,0.14c-2.01,0.89-3.37,2.37-4.05,4.42c-0.79,2.38-0.82,6.15,3.55,10.55c2.91,2.94,6.96,5.31,12.01,7.04
						c4.63,1.59,9.29,2.28,13.85,2.07c4.45-0.21,9.07-1.31,13.73-3.26c6.88-2.83,12.9-7.03,17.89-12.48
						c4.94-5.4,8.65-11.78,11.04-18.98C256.76,184.48,256.78,176.06,253.8,168.58z M249.45,192.1c-2.26,6.8-5.71,12.75-10.36,17.83
						c-4.65,5.08-10.17,8.94-16.56,11.57c-4.22,1.77-8.29,2.74-12.21,2.93c-3.92,0.18-7.89-0.41-11.89-1.78
						c-4.29-1.47-7.62-3.4-9.98-5.78c-2.36-2.38-3.19-4.63-2.48-6.76c0.38-1.13,1.09-1.93,2.14-2.4c1.05-0.46,2.19-0.48,3.43-0.06
						c0.82,0.28,1.54,0.68,2.15,1.2c0.67,0.61,1.14,1.3,1.42,2.06c0.27,0.76,0.51,2.04,0.69,3.83c0.18,1.94,0.72,3.46,1.62,4.57
						c0.89,1.11,2.31,2,4.25,2.66c5.4,1.85,11.18,0.64,17.33-3.64c6.31-4.34,11.38-10.43,15.22-18.26c-3.39,0.94-6.5,1.4-9.34,1.36
						c-2.84-0.04-5.67-0.54-8.52-1.52c-3.13-1.08-6.09-2.76-8.86-5.05c-4.22-3.48-7.08-7.51-8.59-12.11
						c-1.51-4.59-1.5-9.19,0.03-13.8c1.13-3.4,2.91-6.38,5.34-8.93c2.43-2.55,5.34-4.49,8.72-5.82c6.26-2.52,12.88-2.59,19.86-0.19
						c8.26,2.83,13.84,7.97,16.75,15.4C252.28,176.15,252.23,183.72,249.45,192.1z"/>
					<path class="st0" d="M232.89,155.53c-2.26-0.78-4.57-0.97-6.93-0.57c-2.36,0.4-4.62,1.37-6.78,2.93
						c-2.21,1.54-4.27,3.67-6.18,6.4c-1.91,2.73-3.36,5.57-4.34,8.53c-1,3.02-1.5,6.12-1.5,9.28c0,3.16,0.51,5.93,1.51,8.3
						c1.72,4.07,4.82,6.88,9.31,8.42c3.87,1.33,7.6,1.12,11.21-0.63c2.64-1.32,5-3.33,7.09-6.04c2.09-2.71,3.76-5.93,5-9.68
						c2.13-6.43,2.41-12.11,0.84-17.05C240.5,160.38,237.42,157.08,232.89,155.53z M236.99,180.99c-1.12,3.39-2.64,6.33-4.5,8.74
						c-1.76,2.28-3.72,3.97-5.81,5.01c-2.52,1.22-4.91,1.38-7.51,0.49c-3.11-1.07-5.12-2.9-6.33-5.77c-0.8-1.9-1.21-4.23-1.22-6.91
						c-0.01-2.8,0.44-5.58,1.33-8.26c0.88-2.65,2.2-5.25,3.93-7.71c1.68-2.4,3.48-4.27,5.37-5.59c1.66-1.19,3.36-1.94,5.05-2.23
						c1.53-0.26,2.97-0.15,4.39,0.34c2.99,1.03,4.94,3.22,6.13,6.91C239.18,170.22,238.89,175.26,236.99,180.99z"/>
				</g>
				<path class="st0" d="M229.84,202.74c-2.91,1.11-4.35,0.45-6.74,0.57c-2.39,0.12-4.19-2.52-6.54-3.32
					c-2.59-0.88-4.99-2.37-7.21-4.46c-3.37-3.17-5.57-6.97-6.59-11.39c-1.02-4.42-0.76-8.93,0.78-13.53c1.14-3.4,2.81-6.42,5-9.05
					c2.2-2.64,4.76-4.7,7.69-6.19c5.43-2.82,11.69-4.23,17.45-2.27c6.82,2.32,10.59,8.02,12.64,15.14
					c1.9,6.46,1.44,13.88-1.37,22.25c-2.28,6.8-5.52,12.82-9.73,18.06c-4.21,5.24-9.08,9.33-14.62,12.26
					c-3.66,1.97-7.15,3.15-10.48,3.55c-3.32,0.4-6.64,0.04-9.95-1.09c-3.55-1.21-6.25-2.91-8.11-5.11c-1.86-2.2-2.44-4.37-1.72-6.49
					c0.38-1.13,1.03-1.95,1.94-2.47c0.91-0.51,1.88-0.59,2.9-0.25c0.68,0.23,1.26,0.58,1.75,1.05c0.53,0.56,0.89,1.21,1.08,1.95
					c0.19,0.73,0.32,1.97,0.38,3.71c0.05,1.89,0.42,3.36,1.12,4.39c0.69,1.04,2.63-0.51,4.23,0.04c4.46,1.52,8.62,2.34,14.05-2.2
					C223.34,213.29,226.17,210.63,229.84,202.74z M238.58,181.5c2.15-6.42,2.7-12.01,1.65-16.76c-1.1-4.85-3.95-6.77-7.68-8.04
					c-1.87-0.64-3.38-1.84-5.4-1.32c-2.01,0.52-3.97,1.6-5.89,3.25c-1.95,1.63-3.81,3.84-5.57,6.62c-1.77,2.78-3.14,5.65-4.13,8.6
					c-1.01,3.02-1.6,6.08-1.77,9.18c-0.17,3.1,0.1,5.78,0.82,8.05c1.23,3.9,4.27,4.99,7.97,6.25c3.19,1.09,5.79,2.16,8.93,0.25
					c2.3-1.44,4.41-3.54,6.32-6.31C235.74,188.5,237.32,185.24,238.58,181.5z"/>
			</g>
			<g>
				<g>
					<path class="st0" d="M140.1,146.26c-2.48,0.18-4.77,0.94-6.87,2.29c-2.1,1.34-3.87,3.2-5.32,5.58
						c-1.49,2.38-2.61,5.27-3.34,8.67c-0.73,3.4-0.97,6.72-0.72,9.95c0.26,3.31,1.03,6.48,2.31,9.51c1.28,3.03,2.88,5.48,4.8,7.34
						c3.29,3.2,7.4,4.63,12.33,4.27c4.24-0.31,7.74-2.04,10.49-5.19c2-2.34,3.45-5.23,4.36-8.69c0.91-3.45,1.2-7.23,0.88-11.33
						c-0.55-7.03-2.58-12.6-6.08-16.7C149.35,147.8,145.07,145.9,140.1,146.26z M153.53,179.23c-0.77,2.91-1.97,5.33-3.55,7.18
						c-1.93,2.21-4.15,3.33-7,3.54c-3.41,0.25-6.08-0.69-8.4-2.95c-1.54-1.5-2.87-3.56-3.96-6.13c-1.13-2.68-1.83-5.53-2.06-8.47
						c-0.23-2.9-0.01-5.93,0.65-9c0.64-2.98,1.61-5.52,2.89-7.56c1.11-1.82,2.44-3.23,3.95-4.2c1.36-0.87,2.79-1.35,4.35-1.47
						c3.29-0.24,6.04,1.07,8.67,4.12c2.98,3.49,4.74,8.44,5.23,14.71C154.61,172.72,154.34,176.16,153.53,179.23z"/>
					<path class="st0" d="M165.42,150.23c-6.79-6.95-15.63-10.09-26.28-9.31c-8.95,0.65-16.43,3.92-22.23,9.71
						c-3.12,3.06-5.45,6.61-6.95,10.55c-1.47,3.9-2.05,8-1.73,12.2c0.45,5.76,2.61,10.89,6.41,15.26c3.84,4.41,8.99,7.59,15.3,9.45
						c4.2,1.25,8.42,1.73,12.52,1.43c3.7-0.27,7.24-1.09,10.49-2.43c0.17-0.07,0.34-0.14,0.51-0.22c-1.11,4.99-2.96,9.53-5.51,13.55
						c-3.38,5.36-7.06,8.12-11.28,8.42c-1.44,0.1-2.04-0.12-2.23-0.22c-0.19-0.1-0.88-0.56-1.71-2.11
						c-1.08-1.97-1.93-3.24-2.74-4.12c-1.05-1.14-2.41-2.01-4.08-2.6l-0.16-0.05c-1.44-0.44-2.98-0.61-4.58-0.5
						c-2.7,0.2-5,1.23-6.65,3c-1.57,1.67-2.27,3.65-2.1,5.89c0.2,2.61,1.7,6.23,7.67,8.67c3.98,1.63,8.81,2.25,14.36,1.84
						c5.08-0.37,9.83-1.61,14.11-3.68c4.18-2.02,8.17-4.96,11.85-8.74c5.46-5.53,9.53-12.02,12.11-19.28
						c2.56-7.2,3.54-14.84,2.92-22.72C174.69,164.26,171.3,156.19,165.42,150.23z M168.02,195.9c-2.41,6.78-6.14,12.73-11.21,17.87
						c-3.33,3.42-6.84,6.02-10.53,7.8c-3.69,1.78-7.73,2.83-12.12,3.15c-4.71,0.34-8.68-0.15-11.9-1.46
						c-3.22-1.32-4.93-3.14-5.11-5.47c-0.1-1.24,0.26-2.3,1.08-3.17c0.82-0.87,1.91-1.36,3.26-1.46c0.9-0.07,1.75,0.02,2.55,0.27
						c0.89,0.31,1.62,0.78,2.19,1.4c0.57,0.62,1.31,1.75,2.21,3.39c0.96,1.78,2.09,3.03,3.4,3.73c1.31,0.7,3.02,0.97,5.15,0.82
						c5.93-0.43,10.98-3.96,15.14-10.58c4.29-6.74,6.7-14.65,7.22-23.73c-2.87,2.29-5.67,4-8.41,5.12c-2.73,1.13-5.66,1.8-8.78,2.03
						c-3.44,0.25-6.95-0.16-10.54-1.22c-5.45-1.61-9.83-4.31-13.13-8.1s-5.15-8.2-5.54-13.25c-0.29-3.72,0.21-7.31,1.51-10.75
						c1.3-3.44,3.31-6.49,6.02-9.15c4.98-4.98,11.31-7.74,18.96-8.3c9.06-0.66,16.49,1.98,22.29,7.92c5.3,5.37,8.3,12.64,9.02,21.82
						C171.34,182.01,170.43,189.13,168.02,195.9z"/>
				</g>
				<path class="st0" d="M156.9,192.81c-2.35,2.26-4.69,1.21-6.94,2.3c-2.25,1.1-4.99,0.27-7.57,0.47
					c-2.84,0.21-5.74-0.23-8.72-1.33c-4.52-1.66-8.16-4.41-10.93-8.23c-2.77-3.82-4.34-8.25-4.72-13.3
					c-0.28-3.73,0.1-7.3,1.14-10.73c1.04-3.43,2.66-6.45,4.87-9.08c4.07-4.92,9.26-7.62,15.58-8.1c7.48-0.56,13.64,2.15,18.49,8.14
					c4.43,5.42,6.99,12.72,7.68,21.9c0.56,7.45-0.12,14.55-2.04,21.3c-1.92,6.75-4.94,12.66-9.07,17.74
					c-2.72,3.38-5.59,5.95-8.61,7.69c-3.03,1.74-6.35,2.75-9.98,3.02c-3.89,0.29-7.17-0.24-9.85-1.59c-2.68-1.35-4.1-3.19-4.28-5.52
					c-0.09-1.24,0.19-2.29,0.86-3.16c0.67-0.86,1.56-1.34,2.68-1.42c0.75-0.06,1.45,0.04,2.11,0.3c0.74,0.32,1.35,0.8,1.82,1.42
					c0.48,0.63,1.1,1.76,1.86,3.41c0.81,1.79,1.76,3.05,2.85,3.76c1.09,0.71,2.38-1.36,4.14-1.49c4.89-0.37,9.15-1.48,12.52-8.05
					C154.28,205.56,156.57,201.88,156.9,192.81z M156.04,168.84c-0.53-7.04-2.26-12.62-5.19-16.75c-3.01-4.2-5.7-4.37-9.8-4.06
					c-2.05,0.15-4.81-0.89-6.52,0.44c-1.72,1.32-3.16,3.16-4.34,5.52c-1.21,2.36-2.1,5.24-2.67,8.63c-0.57,3.39-0.73,6.71-0.49,9.94
					c0.25,3.31,0.92,6.49,2.01,9.53c1.09,3.04,2.44,5.5,4.04,7.39c2.75,3.24,6.22,2.73,10.28,2.42c3.5-0.26,6.31,0.02,8.55-3.1
					c1.62-2.32,2.79-5.2,3.51-8.64C156.15,176.71,156.35,172.94,156.04,168.84z"/>
			</g>
		</g>
	</g>
	<g>
		<path class="st0" d="M263.96,144.81c0.16,0.04,0.3,0.11,0.45,0.16l-2.01-78.76c-0.01-0.51-0.08-1-0.11-1.5l-8.27-0.99l-3.91,16.01
			l1.59,62.44C255.77,143.01,259.82,143.85,263.96,144.81z"/>
		<path class="st0" d="M253.32,205.72l0.61,23.97c0.28,11.16-8.57,20.47-19.73,20.76l-183.87,4.69
			c-11.16,0.28-20.47-8.57-20.76-19.73l-0.68-26.53l-13.51-34.24l1.44,56.42c0.53,20.74,17.77,37.12,38.51,36.59l174.52-4.45
			c20.74-0.53,37.12-17.77,36.59-38.51l-1.37-53.85L253.32,205.72z"/>
		<path class="st0" d="M15.17,148.98c3.71-1.17,7.79-2.37,12.11-3.57l-0.41-16.19c-0.59-0.09-1.23-0.14-1.81-0.24
			c-2.5-0.43-4.73-0.86-6.69-1.3l-2.87-26.18c3.37,1.13,6.97,1.75,10.72,2.04l-0.24-9.36c-0.05-0.01-0.1,0-0.15-0.01
			c-3.19-0.6-6.07-1.78-8.65-3.54c-1.48-1.01-2.79-2.23-4.02-3.57l1.58,62.11C14.89,149.11,15.02,149.03,15.17,148.98z"/>
	</g>
</g>
</svg>
