<svg width="76" height="76" viewBox="0 0 76 76" fill="none" xmlns="http://www.w3.org/2000/svg">
<path d="M0 53.4486V31.3813H4.65305V49.7881H13.0712V53.4486H0Z" fill="white"/>
<path d="M32.1795 44.1754C32.1795 50.6364 29.2906 53.8669 23.5128 53.8669C17.7349 53.8669 14.846 50.6364 14.846 44.1754V31.3813H19.5346V44.8029C19.5346 48.2891 20.8607 50.0321 23.5128 50.0321C26.2123 50.0321 27.562 48.2891 27.562 44.8029V31.3813H32.1795V44.1754Z" fill="white"/>
<path d="M53.933 50.9734C51.9676 52.9024 49.6588 53.8669 47.0067 53.8669C43.1943 53.8669 40.3527 52.4724 38.482 49.6835C37.1323 47.6848 36.4574 45.3375 36.4574 42.6415C36.4574 39.1322 37.3809 36.3084 39.2279 34.1702C41.0513 32.032 43.585 30.963 46.8291 30.963C49.1023 30.963 51.3756 31.9042 53.6488 33.7867L51.8373 36.6802C50.1324 35.4717 48.5814 34.8674 47.1843 34.8674C45.2425 34.8674 43.7389 35.6693 42.6733 37.2729C41.7498 38.6441 41.288 40.4336 41.288 42.6415C41.288 44.5938 41.8327 46.2671 42.9219 47.6616C44.0822 49.1258 45.6333 49.8578 47.575 49.8578C48.8537 49.8578 50.3692 49.3117 52.1215 48.2194L53.933 50.9734Z" fill="white"/>
<path d="M63.8168 31.3813H67.724L76 53.4486H71.2759C70.8734 52.2865 70.3761 50.7526 69.7841 48.8469H61.7212C61.3897 49.8927 60.8806 51.4266 60.1938 53.4486H55.5408L63.8168 31.3813ZM65.8059 37.3426C65.1429 39.1786 64.2312 41.7584 63.0709 45.0818H68.4699C67.3569 41.8746 66.4689 39.2948 65.8059 37.3426Z" fill="white"/>
<path d="M0.943023 75.6979V61.0096C2.22172 60.8237 3.50832 60.7307 4.80281 60.7307C6.61824 60.7307 7.96009 61.1568 8.82834 62.009C9.50716 62.6907 9.84657 63.5894 9.84657 64.7049C9.84657 65.4796 9.60188 66.1536 9.1125 66.7269C8.63891 67.3002 8.00745 67.6798 7.21813 67.8657V67.8889C8.1811 68.0439 8.93885 68.4777 9.49138 69.1904C10.0439 69.8876 10.3202 70.7708 10.3202 71.8399C10.3202 73.2498 9.75974 74.3189 8.63891 75.0471C7.67594 75.6824 6.39723 76 4.80281 76C3.63461 76 2.34802 75.8993 0.943023 75.6979ZM2.69532 62.2646V67.2149H5.158C6.01047 67.2149 6.69718 67.0058 7.21813 66.5874C7.75487 66.1536 8.02324 65.5803 8.02324 64.8676C8.02324 63.0238 6.93397 62.1019 4.75545 62.1019C3.91877 62.1019 3.23206 62.1562 2.69532 62.2646ZM2.69532 68.6559V74.4661C3.35835 74.5591 4.13188 74.6056 5.01592 74.6056C7.30495 74.6056 8.44947 73.6759 8.44947 71.8166C8.44947 70.825 8.15742 70.0503 7.57332 69.4925C7.00501 68.9348 6.1999 68.6559 5.158 68.6559H2.69532Z" fill="white"/>
<path d="M13.5437 61.0096H22.3526V62.4738H15.296V67.3311H21.2396V68.7953H15.296V74.2569H22.6604V75.7211H13.5437V61.0096Z" fill="white"/>
<path d="M24.5635 62.4738V61.0096H35.835V62.4738H30.8859V75.7211H29.1336V62.4738H24.5635Z" fill="white"/>
<path d="M41.0769 67.8424C39.293 67.1762 38.4011 66.0761 38.4011 64.5422C38.4011 63.3492 38.851 62.3886 39.7508 61.6604C40.5559 61.0096 41.5741 60.6842 42.8055 60.6842C44.1631 60.6842 45.2603 61.1026 46.097 61.9392C46.8389 62.6675 47.2099 63.5506 47.2099 64.5887C47.2099 65.3169 46.9652 65.9754 46.4758 66.5642C46.0022 67.1375 45.3471 67.5713 44.5104 67.8657C45.4734 68.1601 46.2311 68.6481 46.7837 69.3299C47.3362 70.0116 47.6125 70.8095 47.6125 71.7237C47.6125 73.0562 47.0836 74.133 46.0259 74.9542C45.1103 75.6514 44.0131 76 42.7344 76C41.2663 76 40.0665 75.5507 39.1351 74.652C38.3142 73.8618 37.9038 72.8935 37.9038 71.7469C37.9038 70.8173 38.1958 69.9961 38.7799 69.2834C39.364 68.5552 40.1297 68.0749 41.0769 67.8424ZM42.7818 67.2847C43.5869 67.0987 44.2184 66.7579 44.6762 66.2621C45.1498 65.7663 45.3866 65.1852 45.3866 64.519C45.3866 63.8218 45.1498 63.2562 44.6762 62.8224C44.2026 62.3886 43.579 62.1717 42.8055 62.1717C42.0162 62.1717 41.3847 62.3808 40.9111 62.7992C40.4533 63.202 40.2244 63.752 40.2244 64.4493C40.2244 65.8437 41.0769 66.7889 42.7818 67.2847ZM42.7344 68.4235C41.8978 68.5164 41.1953 68.8805 40.627 69.5158C40.0586 70.1355 39.7745 70.856 39.7745 71.6772C39.7745 72.5139 40.0508 73.2033 40.6033 73.7456C41.1558 74.2724 41.8662 74.5358 42.7344 74.5358C43.6185 74.5358 44.3368 74.2724 44.8893 73.7456C45.4576 73.2188 45.7418 72.5371 45.7418 71.7004C45.7418 70.8483 45.4576 70.1123 44.8893 69.4925C44.321 68.8728 43.6027 68.5164 42.7344 68.4235Z" fill="white"/>
<path d="M53.7723 67.8424C51.9884 67.1762 51.0965 66.0761 51.0965 64.5422C51.0965 63.3492 51.5464 62.3886 52.4462 61.6604C53.2514 61.0096 54.2696 60.6842 55.5009 60.6842C56.8586 60.6842 57.9557 61.1026 58.7924 61.9392C59.5344 62.6675 59.9053 63.5506 59.9053 64.5887C59.9053 65.3169 59.6606 65.9754 59.1713 66.5642C58.6977 67.1375 58.0425 67.5713 57.2059 67.8657C58.1688 68.1601 58.9266 68.6481 59.4791 69.3299C60.0316 70.0116 60.3079 70.8095 60.3079 71.7237C60.3079 73.0562 59.779 74.133 58.7214 74.9542C57.8057 75.6514 56.7086 76 55.4299 76C53.9617 76 52.762 75.5507 51.8306 74.652C51.0097 73.8618 50.5992 72.8935 50.5992 71.7469C50.5992 70.8173 50.8913 69.9961 51.4754 69.2834C52.0595 68.5552 52.8251 68.0749 53.7723 67.8424ZM55.4772 67.2847C56.2823 67.0987 56.9138 66.7579 57.3716 66.2621C57.8452 65.7663 58.082 65.1852 58.082 64.519C58.082 63.8218 57.8452 63.2562 57.3716 62.8224C56.898 62.3886 56.2745 62.1717 55.5009 62.1717C54.7116 62.1717 54.0801 62.3808 53.6065 62.7992C53.1487 63.202 52.9198 63.752 52.9198 64.4493C52.9198 65.8437 53.7723 66.7889 55.4772 67.2847ZM55.4299 68.4235C54.5932 68.5164 53.8907 68.8805 53.3224 69.5158C52.7541 70.1355 52.4699 70.856 52.4699 71.6772C52.4699 72.5139 52.7462 73.2033 53.2987 73.7456C53.8512 74.2724 54.5616 74.5358 55.4299 74.5358C56.3139 74.5358 57.0322 74.2724 57.5847 73.7456C58.153 73.2188 58.4372 72.5371 58.4372 71.7004C58.4372 70.8483 58.153 70.1123 57.5847 69.4925C57.0164 68.8728 56.2981 68.5164 55.4299 68.4235Z" fill="white"/>
<path d="M66.4677 67.8424C64.6839 67.1762 63.7919 66.0761 63.7919 64.5422C63.7919 63.3492 64.2419 62.3886 65.1417 61.6604C65.9468 61.0096 66.965 60.6842 68.1964 60.6842C69.554 60.6842 70.6511 61.1026 71.4878 61.9392C72.2298 62.6675 72.6008 63.5506 72.6008 64.5887C72.6008 65.3169 72.3561 65.9754 71.8667 66.5642C71.3931 67.1375 70.738 67.5713 69.9013 67.8657C70.8643 68.1601 71.622 68.6481 72.1745 69.3299C72.7271 70.0116 73.0033 70.8095 73.0033 71.7237C73.0033 73.0562 72.4745 74.133 71.4168 74.9542C70.5012 75.6514 69.404 76 68.1253 76C66.6572 76 65.4574 75.5507 64.526 74.652C63.7051 73.8618 63.2947 72.8935 63.2947 71.7469C63.2947 70.8173 63.5867 69.9961 64.1708 69.2834C64.7549 68.5552 65.5206 68.0749 66.4677 67.8424ZM68.1727 67.2847C68.9778 67.0987 69.6092 66.7579 70.067 66.2621C70.5406 65.7663 70.7774 65.1852 70.7774 64.519C70.7774 63.8218 70.5406 63.2562 70.067 62.8224C69.5935 62.3886 68.9699 62.1717 68.1964 62.1717C67.407 62.1717 66.7756 62.3808 66.302 62.7992C65.8442 63.202 65.6153 63.752 65.6153 64.4493C65.6153 65.8437 66.4677 66.7889 68.1727 67.2847ZM68.1253 68.4235C67.2886 68.5164 66.5861 68.8805 66.0178 69.5158C65.4495 70.1355 65.1654 70.856 65.1654 71.6772C65.1654 72.5139 65.4416 73.2033 65.9941 73.7456C66.5467 74.2724 67.2571 74.5358 68.1253 74.5358C69.0094 74.5358 69.7276 74.2724 70.2802 73.7456C70.8485 73.2188 71.1326 72.5371 71.1326 71.7004C71.1326 70.8483 70.8485 70.1123 70.2802 69.4925C69.7119 68.8728 68.9936 68.5164 68.1253 68.4235Z" fill="white"/>
<g clip-path="url(#clip0)">
<path d="M28.1961 20.3401V22.2306C28.1961 22.6885 28.5672 23.0596 29.025 23.0596H46.975C47.4328 23.0596 47.8039 22.6885 47.8039 22.2306V20.3401H28.1961Z" fill="#FDF6C2"/>
<path d="M52.0741 9.80327C52.0741 8.32641 50.8725 7.12486 49.3957 7.12486C47.9188 7.12486 46.7175 8.32641 46.7175 9.80327C46.7175 10.5132 46.9956 11.1592 47.4483 11.639C46.6432 12.5397 45.4741 13.1081 44.1739 13.1081C42.0694 13.1081 40.3067 11.6203 39.8802 9.64156C40.3726 9.15557 40.6784 8.48103 40.6784 7.73626C40.6784 6.25941 39.4769 5.05786 38 5.05786C36.5231 5.05786 35.3216 6.25941 35.3216 7.73626C35.3216 8.48103 35.6276 9.15557 36.1198 9.64156C35.6933 11.6203 33.9306 13.1081 31.8261 13.1081C30.5259 13.1081 29.3568 12.5397 28.5517 11.639C29.0044 11.1592 29.2827 10.5132 29.2827 9.80327C29.2827 8.32641 28.0812 7.12486 26.6043 7.12486C25.1275 7.12486 23.9259 8.32641 23.9259 9.80327C23.9259 11.0832 24.8285 12.1557 26.0305 12.419C26.2682 14.3809 26.7276 16.7714 27.6145 18.6822H48.3855C49.2724 16.7714 49.7318 14.3809 49.9695 12.419C51.1715 12.1555 52.0741 11.0832 52.0741 9.80327Z" fill="#FDF6C2"/>
</g>
<defs>
<clipPath id="clip0">
<rect x="23.9259" width="28.1481" height="28.1481" fill="white"/>
</clipPath>
</defs>
</svg>
